<svg xmlns="http://www.w3.org/2000/svg" viewBox="0 0 128 128">
  <title>Spurfire</title>
  <rect x="5" y="5" width="118" height="118" rx="26" fill="#1b222d" stroke="#3a4556" stroke-width="2"/>
  <polygon points="64,18 74.33,39.05 96.53,31.47 88.95,53.67 110,64 88.95,74.33 96.53,96.53 74.33,88.95 64,110 53.67,88.95 31.47,96.53 39.05,74.33 18,64 39.05,53.67 31.47,31.47 53.67,39.05" transform="translate(5,5)" fill="#8b4c32"/>
  <polygon points="64,18 74.33,39.05 96.53,31.47 88.95,53.67 110,64 88.95,74.33 96.53,96.53 74.33,88.95 64,110 53.67,88.95 31.47,96.53 39.05,74.33 18,64 39.05,53.67 31.47,31.47 53.67,39.05" fill="#f2c879"/>
  <circle cx="64" cy="64" r="19" fill="#f07a3f"/>
  <circle cx="64" cy="64" r="9" fill="#1b222d"/>
</svg>
